<?xml version="1.0" encoding="UTF-8"?>
<svg viewBox="0 0 200 200" xmlns="http://www.w3.org/2000/svg">
 <g transform="matrix(.29202 0 0 .3039 -63.92 -348.83)" fill="#fff">
  <g fill-rule="evenodd" stroke-width="10">
   <path d="m670.01 1438.9l5.1786 4.1072c27.272-25.159 54.469-48.137 83.929-69.464 20.472-14.821 43.323-25.973 63.393-42.143 4.119-5.408 3.7282-9.996 2.6786-14.464-1.1589 3.1646-1.145 7.3247-3.8381 9.1505-51.205 34.716-112.6 72.677-151.34 112.81z" stroke="#2e3436"/>
   <path d="m647.95 1421.2c52.234-44.737 101.84-80.463 152.68-115.89 23.543-5.0028 30.09 10.74 22.143 16.786-56.589 31.626-103.38 73.054-151.79 112.86l0.1786 0.1786-23.214-13.929z" stroke="#555753"/>
  </g>
  <g stroke-linecap="round" stroke-linejoin="round">
   <path d="m705.4 1492.5a204.41 102.98 0 1 1 -408.82 0 204.41 102.98 0 1 1 408.82 0z" stroke="#2e3436" stroke-width="7.874"/>
   <path d="m654.3 1535.3a153.31 69.97 0 1 1 -306.63 0 153.31 69.97 0 1 1 306.63 0z" stroke="#151718" stroke-width="11.031"/>
   <g stroke="#fff">
    <path d="m500.97 1400.6c-55.353 0-105.44 11.435-140.87 29.286-17.714 8.9255-31.715 19.478-40.862 30.369-9.1468 10.892-13.342 21.568-13.342 32.232s4.1951 21.34 13.342 32.232c9.1467 10.892 23.148 21.444 40.862 30.369 35.428 17.851 85.517 29.286 140.87 29.286s105.47-11.435 140.91-29.286c17.719-8.9257 31.712-19.477 40.862-30.369s13.342-21.569 13.342-32.232-4.1918-21.34-13.342-32.232c-9.15-10.892-23.143-21.444-40.862-30.369-35.437-17.851-85.554-29.286-140.91-29.286z" opacity=".376" stroke-width="7.874"/>
    <path d="m500.98 1475.7c-41.217 0-78.515 7.7639-104.65 19.692-13.066 5.9639-23.279 12.979-29.802 20.016-6.5231 7.0362-9.2432 13.556-9.2432 19.898 0 6.3418 2.7201 12.861 9.2432 19.898 6.5231 7.0362 16.736 14.052 29.802 20.015 26.132 11.928 63.43 19.692 104.65 19.692 41.217 0 78.508-7.7636 104.65-19.692 13.07-5.9641 23.304-12.979 29.829-20.015 6.5256-7.0366 9.2432-13.557 9.2432-19.898 0-6.3408-2.7176-12.861-9.2432-19.898-6.5256-7.0367-16.76-14.052-29.829-20.016-26.139-11.928-63.43-19.692-104.65-19.692z" opacity=".385" stroke-width="11.031"/>
   </g>
  </g>
  <g fill-rule="evenodd">
   <path d="m682.06 1540.1c-71.053 52.231-173.02 60.824-246.83 48.852-46.427-7.53-86.802-24.75-116.02-48.852 33.991 50.626 66.105 62.622 105.58 73.395 78.444 21.407 203.56 16.04 257.28-73.395z" stroke="#2e3436" stroke-width="10"/>
   <path d="m808.77 1311.4c-1.5624 0.02356-3.4666 0.29541-5.4688 0.65625-47.829 33.352-94.508 67.144-143.25 108.28l10.281 6.125c46.764-38.589 92.712-78.832 148.31-110.03 0.57019-0.44653 0.66101-0.60352 0.03125-1.6562-0.70361-1.1763-3.21-3.4762-9.9062-3.375z" opacity=".521" stroke="#fff" stroke-width="4"/>
  </g>
 </g>
</svg>
