<?xml version="1.0" encoding="UTF-8"?>
<svg enable-background="new 0 0 249.959 280.672" viewBox="0 0 249.959 280.672" xmlns="http://www.w3.org/2000/svg">
 <path d="m173.63 87.276c-12.349 2.115-20.564 8.362-30.447 12.94 2.774-6.682 13.695-10.747 22.072-12.94 2.32-0.606 6.849-3.483 8.375 0z"/>
 <path d="m212.45 130.66c-3.089-1.986-4.267-5.881-7.614-7.612-8.473-1.379-14.477 2.946-20.549 1.523 6.27-7.528 32.003-9.68 28.163 6.089z"/>
 <path d="m110.454,120.768c3.187.821-.85,6.455-.762,9.135-3.784-1.42.023-7.281.762-9.135z"/>
 <path d="m112.737,126.095c3.226-.275.667,3.299.761,4.568 3.763,2.074 3.679,7.993 9.895,7.611-.947,3.112-2.88,5.24-4.567,7.612 .754,2.546 3.053,3.544 3.806,6.091-1.019,2.783-3.49,4.121-6.088,5.327 1.604-6.122 4.923-6.44-3.045-9.896 1.745-7.221-3.73-13.35-.762-21.313z"/>
 <path d="m202.556,131.426c2.428,3.658 6.065,6.114 7.611,10.656-4.811-2.35-3.992,2.979-6.852,4.566 .812,3.529 2.627,6.942-1.521,8.373-2.671-1.646-2.966-5.664-8.375-4.567-3.365-2.724-5.255-6.925-11.416-6.853 2.941-7.964 8.662-13.158 20.553-12.175zm-13.7,6.088c6.42-.488 11.316-.023 15.223,0-1.133-6.364-12.652-3.213-15.223,0zm0,5.328c2.597,3.112 9.143,8.695 12.938,3.809-5.566.208-8.541-12.161-12.938-3.809z"/>
 <path d="m92.185 132.95c-3.257 8.162-11.494 11.34-18.268 15.984-1.854 1.951-2.088 5.523-6.09 5.329 1.846-7.935 9.781-11.028 15.224-15.223 2.986-2.301 4.911-5.974 9.134-6.09z"/>
 <path d="m209.405,169.484c3.385,1.404-1.865,10.154 3.807,10.656 2.59-.203 2.155-3.43 3.809-4.568 3.732.576 10.226-1.603 10.654,2.283 .278,3.227-3.299.668-4.566.762-3.668.771-4.139,4.297-7.611,4.566-7.039.549-11.876-7.708-6.093-13.699z"/>
 <path d="m74.679,177.096c5.972.786 6.053,13.67-.762,13.7 2.954-4.317-1.68-8.778.762-13.7z"/>
 <path d="m220.06,200.691c3.658,1.089-.312,6.447-3.041,6.088-.338-3.383 2.061-4.026 3.041-6.088z"/>
 <path d="m110.454,158.826c-7.513-8.23-13.415-30.475-5.328-42.626 8.285-5.383 21.486,1.726 17.506,12.942-3.752.2-1.205-5.901-3.044-7.612-1.076-2.983-4.848-3.271-6.85-5.331-4.752.326-5.375,4.775-9.135,6.091 1.587,5.131.16,10.357.762,15.223 .229,1.852 1.832,3.747 2.284,6.088 .284,1.478-.412,3.568 0,4.566 1.726,4.191 6.043,5.725 6.85,9.896 2.054,1.752 6.061,1.551 6.851,4.566-1.527,3.241-6.179-2.726-9.135-3.044 2.972,6.414 5.174,13.603 12.179,15.983 3.895.342 4.167-2.938 7.61-3.045 2.496,8.518-9.733,6.322-12.938,4.567-4.263-2.334-6.188-9.719-9.896-15.223-3.894-5.783-8.632-9.218-10.656-12.942-4.377,5.978 5.6,17.475-3.806,19.791-.482-2.562.98-7.068-.761-8.371-1.846-.488-2.853,3.625-1.522,3.805-5.796.548-4.408,8.277-9.134,9.895 .349,2.696 1.693,4.398 1.522,7.612-9.357.864-3.416-11.765-7.612-14.461-1,2.047-1.195,4.894-3.806,5.327-2.889,9.037-.439,23.412-8.373,27.402-3.021-1.376 2.394-8.637-2.284-10.658-2.299.23-1.418,3.203 0,3.809-.695,2.554-1.415.376-3.806.76 .251,3.047 2.073,4.523 3.045,6.852-1.407,3.666-3.446,6.703-7.611,7.611 1.752-5.305-3.714-3.39-3.806-6.851-1.404,1.498 2.516,4.776-2.284,3.044-1.84,2.584 6.145,5.219 3.806,8.375-5.38-5.129-18.133-12.536-9.896-22.075-5.374-2.491-7.534-8.196-7.612-15.983-3.996-5.355-11.05-4.424-15.224-8.375-3.104-2.938-2.632-6.92-4.567-9.896-4.271-6.565-10.667-8.339-12.939-16.744-.62-2.294-1.03-6.892-.76-10.656 1.836-25.786 13.39-52.837 30.446-69.268 1.637-1.577 4.351-2.102 6.088-3.805 1.635-1.602 2.287-4.057 3.806-5.328 5.078-4.249 11.769-7.867 17.507-11.418 2.898-1.794 4.843-4.54 7.612-6.088 6.627-3.711 15.477-4.636 19.029-12.179 3.287-.743 6.655-2.147 9.896-3.807 1.387-.71 2.357-2.271 3.806-3.044 5.487-2.92 12.817-3.233 19.791-5.328 14.386-4.32 27.256-10.724 45.668-8.372 11.373,1.453 26.517,6.523 41.103,9.132 10.378,1.857 19.886,4.158 26.644,9.135 4.639,3.416 7.365,8.448 12.179,11.418 3.235,10.464 7.272,20.129 6.092,35.012-6.205,11.558-17.215,18.311-27.405,25.882-1.127,6.796.717,13.298 3.047,20.551 1.942,6.053 6.793,11.522 6.852,15.224 .091,6-5.426,8.339-7.614,14.459 1.16,6.16 4.247,10.57 8.375,15.986 3.415,4.482 9.681,10.467 9.896,14.461 .138,2.582-2.111,7.221-3.808,9.135-3.146,3.558-10.103,4.211-12.179,9.136 .223,6.809 3.283,13.304-1.521,18.268-1.804,1.865-7.215,1.039-8.371,4.568 2.701,2.291 5.408,2.364 6.088,5.327 1.562,6.806-9.614,10.814-9.896,17.508 .907,2.645 1.622,5.48 3.044,7.611-.308,3.496-1.812,5.798-2.283,9.133-3.932,1.839-5.912,5.9-10.656,6.851-4.7.942-9.291.761-12.938,3.045-2.926,1.831-4.254,4.996-6.853,6.852-.567,2.345 2.625.928 1.523,3.805-6.447-4.896-3.439,8.668-10.658,7.612-.142-8.771 5.896-11.358 8.375-17.506-1.705-2.356-5.037-3.084-8.375-3.808-4.798-5.021-8.681-11.657-12.177-19.03-3.226-6.795-8.073-14.242-9.135-22.071-.845-6.242-.586-11.062-4.567-15.224-12.43,1.659-22.836,2.783-32.729,6.088-17.64,5.893-29.104,20.154-44.909,28.164-1.864-3.943 3.134-6.181 5.328-8.373 3.72-3.722 5.909-6.091 10.656-9.135 4.25-2.724 7.631-7.132 12.939-9.896 2.424-1.261 5.463-1.789 8.374-3.046 11.175-4.818 28.983-9.949 47.192-6.088 3.055,11.842 10.746,29.968 18.271,41.863 5.347,8.461 6.699,10.41 18.265,12.18 7.803,1.194 13.713,1.196 19.031-4.567 3.943-6.226-1.17-13.192 0-19.027 1.234-6.167 7.188-5.844 9.133-11.419-.539-3.607-4.86-2.724-7.609-2.281-.664-1.888-1.484-5.903 0-7.613 5.161-1.248 11.788-3.37 13.699-9.895-2.766-4.085-2.221-11.48-4.563-15.986 6.771,2.613 17.577-5.926 17.505-11.416-.049-3.606-6.436-8.454-9.896-13.701-4.922-7.463-9.028-12.829-6.852-23.596 2.461-3.656 5.868-3.81 6.092-8.372 .158-3.284-4.379-7.425-5.328-9.896-4.729-12.28-1.238-24.055-12.939-27.403-3.898-1.114-11.646.349-19.027,1.523-5.987.95-13.071,1.71-18.271,3.044-3.951,1.013-6.735,3.575-10.656,5.328-11.028,4.929-22.521,8.499-28.163,12.179-2.463,1.604-3.754,4.416-6.088,4.565-.42,1.107.889,3.936-.764,3.807-2.604-2.579-4.011-7.725-8.373-9.135-7.197-2.324-17.67,1.192-20.551,6.091-5.226,8.885 1.08,23.017 3.045,32.73 3.283,2.8 5.524,6.65 9.127,9.136zm136.249-99.712c.247-3.254-.839-8.37-1.521-11.419-3.459-15.383-16.311-28.251-33.494-31.968-8.291-1.793-17.553-2.352-25.879-4.567-13.783-3.668-24.701-7.099-37.297-5.328-8.707,1.226-22.959,4.262-28.163,9.135-8.808-1.584-15.374,3.479-22.835,6.849-3.336,1.508-7.381,1.69-9.896,3.044-2.268,1.22-3.248,3.739-5.328,5.33-2.15,1.642-5.2,2.319-7.611,3.805-4.789,2.948-8.84,6.93-14.463,8.372-9.92,9.585-23.008,17.671-33.491,28.926-5.644,6.058-9.773,15.552-13.701,24.355-7.375,16.532-13.78,41.467-.762,54.806 4.361-7.324.955-24.061 8.373-26.64 2.452,4.007.243,9.845-.761,15.224-2.25,12.038-4.642,23.765 7.611,28.163 .834-8.062 3.516-16.354 6.852-24.358 2.017-4.843 4.2-14.438 9.894-11.416-2.569,4.328-3.864,9.943-6.088,15.224-3.083,7.315-8.766,15.229-4.567,22.836 13.041-23.242 37.917-34.648 60.133-48.717 .188-3.615 2.332-5.28 3.044-8.372 4.772-1.571 7.536-5.151 12.939-6.088 9.388-8.751 21.001-19.958 37.298-22.835 1.216-.215 2.607.291 3.805,0 8.364-2.034 15.061-6.591 22.075-7.612 10.929-1.592 20.715,1.976 30.446,0-6.014-20.041-37.496-8.83-50.998-7.612 1.252-4.166 7.056-3.56 11.416-4.567 15.623-3.613 32.218-4.853 40.345,6.088 2.171,2.925 1.291,5.866 5.325,8.372 3.967-11.565-4.865-22.863-11.416-28.923-1.993-1.054-5.691-.396-6.092-3.044 7.848-1.852 13.047,3.981 15.986,9.133 1.415,2.48 3.76,7.579 4.567,10.658 1.229,4.696-1.046,10.428 3.045,13.7 1.56-4.27 3.862-9.14 3.807-14.463-.061-5.439-3.829-9.759-3.047-13.7 4.22,1.425 6.009,9.009 6.089,12.939 .143,6.72-4.941,13.425-3.805,18.268 4.214,1.473 4.085-7.435 7.611-9.132 .43-3.63.795-7.324 2.283-9.896 4.979,7.996-3.625,14.983-5.328,21.312 2.09,1.063 4.266-2.342 6.088-3.805 2.268-1.819 5.797-3.044 6.09-6.091 2.07-.695-2.026-1.415-.758-3.804 3.5-2.08.187-10.977 4.563-12.179 1.332,3.37.054,10.009-1.522,12.939 4.474-.508 8.721-7.42 9.138-12.942zm-39.582,21.311c-6.215-1.258-15.269-.75-22.833-.76-3.936-.005-7.161-.611-10.655,0-7.353,1.286-14.627,5.722-22.075,7.611-1.091.278-2.771-.209-3.807,0-7.859,1.586-14.251,5.894-19.788,9.896-4.555,3.29-11.362,6.669-9.897,11.419 7.127-2.776 17.142-13.298 25.876-14.463-6.394,6.291-16.164,9.203-21.312,16.744 1.769.515 2.039,2.531 3.806,3.046 2.1-1.202 3.719-2.882 5.33-4.567 8.09-4.598 18.062-8.435 28.162-12.939 10.863-4.848 20.885-6.723 32.73-8.375 9.878-1.377 19.145-4.103 25.88,2.284 .163-7.289-6.814-8.964-11.417-9.896zm-134.726,57.089c-2.766,1.776-4.755,4.745-7.611,6.851-5.346,3.941-8.795,5.99-12.94,9.896-3.939,3.709-9.562,7.864-12.179,11.416-.71.966-3.784,6.048-1.522,5.328 7.182-6.04 15.08-15.327 24.357-16.744-8.43,7.554-18.561,13.407-25.119,22.835 6.388-2.498 13.161-11.193 22.075-13.701-6.313,6.881-15.928,10.461-21.313,18.268 .198,2.339 1.651,3.423 2.283,5.328 8.608-1.812 11.588-7.781 16.747-12.94 12.533-12.532 26.123-24.358 38.059-35.774-1.837-3.744-.704-10.458-3.806-12.939-5.045,5.539-12.495,7.98-19.031,12.176zm8.372,32.731c2.506.368 3.197-4.39.762-4.568-.502,1.602-2.015,3.384-.762,4.568zm-18.267,14.463c3.302.502 1.31,6.3 4.568,6.849 .231-5.024.927-11.625-1.523-15.224-1.157,2.649-2.891,4.722-3.045,8.375zm-6.85,19.026c-.214-1.987-.258-3.81 2.282-3.043-1.413-4.168-4.535-6.629-6.088-10.656-1.866,4.846.898,11.142 3.806,13.699zm129.398,54.807c-10.464-6.03-17.148-15.838-22.074-27.402-1.097.406-1.856-2.967-2.283-.761 5.363,11.64 10.326,27.727 24.357,28.163z"/>
</svg>
